<svg width="42" height="42" viewBox="0 0 42 42" fill="none" xmlns="http://www.w3.org/2000/svg">
<path d="M38.0625 8.4H31.5V4.2C31.5 1.88125 29.7363 0 27.5625 0H14.4375C12.2637 0 10.5 1.88125 10.5 4.2V8.4H3.9375C1.76367 8.4 0 10.2812 0 12.6V37.8C0 40.1187 1.76367 42 3.9375 42H38.0625C40.2363 42 42 40.1187 42 37.8V12.6C42 10.2812 40.2363 8.4 38.0625 8.4ZM15.75 5.6H26.25V8.4H15.75V5.6ZM28.875 27.3C28.875 27.685 28.5797 28 28.2188 28H23.625V32.9C23.625 33.285 23.3297 33.6 22.9688 33.6H19.0312C18.6703 33.6 18.375 33.285 18.375 32.9V28H13.7812C13.4203 28 13.125 27.685 13.125 27.3V23.1C13.125 22.715 13.4203 22.4 13.7812 22.4H18.375V17.5C18.375 17.115 18.6703 16.8 19.0312 16.8H22.9688C23.3297 16.8 23.625 17.115 23.625 17.5V22.4H28.2188C28.5797 22.4 28.875 22.715 28.875 23.1V27.3Z" fill="white"/>
</svg>
