<svg width="1440" height="73" viewBox="0 0 1440 73" fill="none" xmlns="http://www.w3.org/2000/svg">
<line x1="390" y1="59" x2="665" y2="59" stroke="#2E236B" stroke-width="2"/>
<line x1="779" y1="59" x2="1054" y2="59" stroke="#2E236B" stroke-width="2"/>
<path d="M721 36.4169L702.031 53.354C701.891 53.4823 701.711 53.5421 701.556 53.6484V69.9026C701.556 70.2756 701.703 70.6332 701.963 70.897C702.224 71.1607 702.577 71.3088 702.945 71.3088H739.056C739.424 71.3088 739.777 71.1607 740.038 70.897C740.298 70.6332 740.444 70.2756 740.444 69.9026V53.652C740.297 53.55 740.122 53.492 739.988 53.3707L721 36.4169ZM729.334 59.3559C729.334 59.5424 729.26 59.7213 729.13 59.8531C729 59.985 728.823 60.0591 728.639 60.0591H723.778V64.9808C723.778 65.1673 723.705 65.3462 723.575 65.478C723.445 65.6099 723.268 65.6839 723.084 65.6839H718.917C718.733 65.6839 718.556 65.6099 718.426 65.478C718.296 65.3462 718.223 65.1673 718.223 64.9808V60.0591H713.362C713.177 60.0591 713.001 59.985 712.871 59.8531C712.74 59.7213 712.667 59.5424 712.667 59.3559V55.1373C712.667 54.9508 712.74 54.772 712.871 54.6401C713.001 54.5082 713.177 54.4342 713.362 54.4342H718.223V49.5124C718.223 49.3259 718.296 49.1471 718.426 49.0152C718.556 48.8834 718.733 48.8093 718.917 48.8093H723.084C723.268 48.8093 723.445 48.8834 723.575 49.0152C723.705 49.1471 723.778 49.3259 723.778 49.5124V54.4342H728.639C728.823 54.4342 729 54.5082 729.13 54.6401C729.26 54.772 729.334 54.9508 729.334 55.1373V59.3559ZM745.539 47.0761L723.322 27.2132C722.687 26.6311 721.86 26.3088 721.003 26.3088C720.145 26.3088 719.319 26.6311 718.683 27.2132L696.461 47.0761C696.325 47.1995 696.215 47.3488 696.136 47.5154C696.057 47.6821 696.012 47.8628 696.002 48.0472C695.992 48.2317 696.018 48.4163 696.079 48.5905C696.14 48.7646 696.234 48.925 696.356 49.0624L698.214 51.1559C698.336 51.2934 698.484 51.4051 698.648 51.4849C698.813 51.5646 698.991 51.6107 699.173 51.6206C699.356 51.6305 699.538 51.6039 699.71 51.5424C699.882 51.4809 700.04 51.3857 700.176 51.2623L720.082 33.4841C720.336 33.2574 720.662 33.1324 721.001 33.1324C721.339 33.1324 721.666 33.2574 721.92 33.4841L741.826 51.2614C741.961 51.3849 742.12 51.4801 742.292 51.5415C742.464 51.603 742.646 51.6296 742.828 51.6197C743.01 51.6098 743.189 51.5637 743.353 51.484C743.518 51.4042 743.665 51.2925 743.787 51.155L745.645 49.0615C745.891 48.784 746.018 48.4189 745.998 48.0466C745.978 47.6743 745.813 47.3252 745.539 47.0761Z" fill="#2E236B"/>
<path d="M721 37.4169L702.031 54.354C701.891 54.4823 701.711 54.5421 701.556 54.6484V70.9026C701.556 71.2756 701.703 71.6332 701.963 71.897C702.224 72.1607 702.577 72.3088 702.945 72.3088H739.056C739.424 72.3088 739.777 72.1607 740.038 71.897C740.298 71.6332 740.444 71.2756 740.444 70.9026V54.652C740.297 54.55 740.122 54.492 739.988 54.3707L721 37.4169ZM729.334 60.3559C729.334 60.5424 729.26 60.7213 729.13 60.8531C729 60.985 728.823 61.0591 728.639 61.0591H723.778V65.9808C723.778 66.1673 723.705 66.3462 723.575 66.478C723.445 66.6099 723.268 66.6839 723.084 66.6839H718.917C718.733 66.6839 718.556 66.6099 718.426 66.478C718.296 66.3462 718.223 66.1673 718.223 65.9808V61.0591H713.362C713.177 61.0591 713.001 60.985 712.871 60.8531C712.74 60.7213 712.667 60.5424 712.667 60.3559V56.1373C712.667 55.9508 712.74 55.772 712.871 55.6401C713.001 55.5082 713.177 55.4342 713.362 55.4342H718.223V50.5124C718.223 50.3259 718.296 50.1471 718.426 50.0152C718.556 49.8834 718.733 49.8093 718.917 49.8093H723.084C723.268 49.8093 723.445 49.8834 723.575 50.0152C723.705 50.1471 723.778 50.3259 723.778 50.5124V55.4342H728.639C728.823 55.4342 729 55.5082 729.13 55.6401C729.26 55.772 729.334 55.9508 729.334 56.1373V60.3559ZM745.539 48.0761L723.322 28.2132C722.687 27.6311 721.86 27.3088 721.003 27.3088C720.145 27.3088 719.319 27.6311 718.683 28.2132L696.461 48.0761C696.325 48.1995 696.215 48.3488 696.136 48.5154C696.057 48.6821 696.012 48.8628 696.002 49.0472C695.992 49.2317 696.018 49.4163 696.079 49.5905C696.14 49.7646 696.234 49.925 696.356 50.0624L698.214 52.1559C698.336 52.2934 698.484 52.4051 698.648 52.4849C698.813 52.5646 698.991 52.6107 699.173 52.6206C699.356 52.6305 699.538 52.6039 699.71 52.5424C699.882 52.4809 700.04 52.3857 700.176 52.2623L720.082 34.4841C720.336 34.2574 720.662 34.1324 721.001 34.1324C721.339 34.1324 721.666 34.2574 721.92 34.4841L741.826 52.2614C741.961 52.3849 742.12 52.4801 742.292 52.5415C742.464 52.603 742.646 52.6296 742.828 52.6197C743.01 52.6098 743.189 52.5637 743.353 52.484C743.518 52.4042 743.665 52.2925 743.787 52.155L745.645 50.0615C745.891 49.784 746.018 49.4189 745.998 49.0466C745.978 48.6743 745.813 48.3252 745.539 48.0761Z" fill="#2E236B"/>
</svg>
